<svg width="93" height="444" viewBox="0 0 93 444" fill="none" xmlns="http://www.w3.org/2000/svg">
<g filter="url(#filter0_b_2926_2571)">
<mask id="path-1-inside-1_2926_2571" fill="white">
<path d="M0 32C0 18.1929 11.1929 7 25 7H50V437H25C11.1929 437 0 425.807 0 412V32Z"/>
</mask>
<path d="M-2 32C-2 17.0883 10.0883 5 25 5H50V9H25C12.2975 9 2 19.2975 2 32H-2ZM50 439H25C10.0883 439 -2 426.912 -2 412H2C2 424.703 12.2975 435 25 435H50V439ZM25 439C10.0883 439 -2 426.912 -2 412V32C-2 17.0883 10.0883 5 25 5V9C12.2975 9 2 19.2975 2 32V412C2 424.703 12.2975 435 25 435V439ZM50 7V437V7Z" fill="#4D4D4D" mask="url(#path-1-inside-1_2926_2571)"/>
<mask id="path-3-inside-2_2926_2571" fill="white">
<path d="M0 114.117H50V221.997H0V114.117Z"/>
</mask>
<path d="M0 114.117V112.117H-2V114.117H0ZM0 116.117H50V112.117H0V116.117ZM2 221.997V114.117H-2V221.997H2Z" fill="#4D4D4D" mask="url(#path-3-inside-2_2926_2571)"/>
<mask id="path-5-inside-3_2926_2571" fill="white">
<path d="M0 220.484H50V328.364H0V220.484Z"/>
</mask>
<path d="M0 220.484V218.484H-2V220.484H0ZM0 222.484H50V218.484H0V222.484ZM2 328.364V220.484H-2V328.364H2Z" fill="#4D4D4D" mask="url(#path-5-inside-3_2926_2571)"/>
<mask id="path-7-inside-4_2926_2571" fill="white">
<path d="M0 326H50V398H0V326Z"/>
</mask>
<path d="M0 326V324H-2V326H0ZM0 328H50V324H0V328ZM2 398V326H-2V398H2Z" fill="#4D4D4D" mask="url(#path-7-inside-4_2926_2571)"/>
<mask id="path-9-inside-5_2926_2571" fill="white">
<path d="M0 379H25V407H0V379Z"/>
</mask>
<path d="M0 379V377C-1.10457 377 -2 377.895 -2 379H0ZM0 381H25V377H0V381ZM2 407V379H-2V407H2Z" fill="#4D4D4D" mask="url(#path-9-inside-5_2926_2571)"/>
<mask id="path-11-inside-6_2926_2571" fill="white">
<path d="M0 272.906H25V326.086H0V272.906Z"/>
</mask>
<path d="M0 272.906V270.906H-2V272.906H0ZM0 274.906H25V270.906H0V274.906ZM2 326.086V272.906H-2V326.086H2Z" fill="#4D4D4D" mask="url(#path-11-inside-6_2926_2571)"/>
<mask id="path-13-inside-7_2926_2571" fill="white">
<path d="M0 166.539H25V219.719H0V166.539Z"/>
</mask>
<path d="M0 166.539V164.539H-2V166.539H0ZM0 168.539H25V164.539H0V168.539ZM2 219.719V166.539H-2V219.719H2Z" fill="#4D4D4D" mask="url(#path-13-inside-7_2926_2571)"/>
<mask id="path-15-inside-8_2926_2571" fill="white">
<path d="M0 60.1719H25V113.352H0V60.1719Z"/>
</mask>
<path d="M0 60.1719V58.1719H-2V60.1719H0ZM0 62.1719H25V58.1719H0V62.1719ZM2 113.352V60.1719H-2V113.352H2Z" fill="#4D4D4D" mask="url(#path-15-inside-8_2926_2571)"/>
</g>
<path d="M66.0611 122.199C65.1236 122.199 64.2879 122.038 63.554 121.716C62.8248 121.394 62.2448 120.946 61.8139 120.374C61.3878 119.796 61.1558 119.126 61.1179 118.364H62.9077C62.9455 118.832 63.1065 119.237 63.3906 119.578C63.6747 119.914 64.0464 120.175 64.5057 120.359C64.965 120.544 65.474 120.636 66.0327 120.636C66.6577 120.636 67.2116 120.527 67.6946 120.31C68.1776 120.092 68.5563 119.789 68.831 119.401C69.1056 119.012 69.2429 118.562 69.2429 118.051C69.2429 117.516 69.1103 117.045 68.8452 116.638C68.58 116.226 68.1918 115.904 67.6804 115.672C67.169 115.44 66.544 115.324 65.8054 115.324H64.6406V113.761H65.8054C66.383 113.761 66.8897 113.657 67.3253 113.449C67.7656 113.241 68.1089 112.947 68.3551 112.568C68.6061 112.189 68.7315 111.744 68.7315 111.233C68.7315 110.741 68.6226 110.312 68.4048 109.947C68.187 109.583 67.8793 109.299 67.4815 109.095C67.0885 108.892 66.6245 108.79 66.0895 108.79C65.5876 108.79 65.1141 108.882 64.669 109.067C64.2287 109.247 63.8688 109.509 63.5895 109.855C63.3101 110.196 63.1586 110.608 63.1349 111.091H61.4304C61.4588 110.329 61.6884 109.661 62.1193 109.088C62.5502 108.51 63.1136 108.061 63.8097 107.739C64.5104 107.417 65.2798 107.256 66.1179 107.256C67.0175 107.256 67.7893 107.438 68.4332 107.803C69.0772 108.162 69.572 108.638 69.9176 109.23C70.2633 109.822 70.4361 110.461 70.4361 111.148C70.4361 111.967 70.2206 112.665 69.7898 113.243C69.3636 113.821 68.7836 114.221 68.0497 114.443V114.557C68.9683 114.708 69.6856 115.099 70.2017 115.729C70.7178 116.354 70.9759 117.128 70.9759 118.051C70.9759 118.842 70.7604 119.552 70.3295 120.182C69.9034 120.807 69.321 121.299 68.5824 121.659C67.8438 122.019 67.0033 122.199 66.0611 122.199ZM85.5 119.727L89.3068 111.091H90.8977L86.1818 122H84.8182L80.1875 111.091H81.75L85.5 119.727ZM81.2102 111.091V122H79.5341V111.091H81.2102ZM89.7898 122V111.091H91.4659V122H89.7898Z" fill="#1E1E1E"/>
<path d="M60.7077 12.017V10.5682L67.0998 0.454545H68.1509V2.69886H67.4407L62.6112 10.3409V10.4545H71.2191V12.017H60.7077ZM67.5543 15V11.5767V10.902V0.454545H69.2305V15H67.5543ZM85.5 12.7273L89.3068 4.09091H90.8977L86.1818 15H84.8182L80.1875 4.09091H81.75L85.5 12.7273ZM81.2102 4.09091V15H79.5341V4.09091H81.2102ZM89.7898 15V4.09091H91.4659V15H89.7898Z" fill="#1E1E1E"/>
<path d="M61.7713 228V226.722L66.5724 221.466C67.1359 220.85 67.5999 220.315 67.9645 219.861C68.3291 219.402 68.599 218.971 68.7741 218.568C68.9541 218.161 69.044 217.735 69.044 217.29C69.044 216.778 68.9209 216.336 68.6747 215.962C68.4332 215.588 68.1018 215.299 67.6804 215.095C67.259 214.892 66.7855 214.79 66.2599 214.79C65.7012 214.79 65.2135 214.906 64.7969 215.138C64.3849 215.365 64.0653 215.685 63.8381 216.097C63.6155 216.509 63.5043 216.991 63.5043 217.545H61.8281C61.8281 216.693 62.0246 215.945 62.4176 215.301C62.8106 214.657 63.3456 214.155 64.0227 213.795C64.7045 213.436 65.4692 213.256 66.3168 213.256C67.169 213.256 67.9242 213.436 68.5824 213.795C69.2405 214.155 69.7566 214.641 70.1307 215.251C70.5047 215.862 70.6918 216.542 70.6918 217.29C70.6918 217.825 70.5947 218.348 70.4006 218.859C70.2112 219.366 69.8797 219.932 69.4062 220.557C68.9375 221.177 68.2865 221.935 67.4531 222.83L64.1861 226.324V226.438H70.9474V228H61.7713ZM85.5 225.727L89.3068 217.091H90.8977L86.1818 228H84.8182L80.1875 217.091H81.75L85.5 225.727ZM81.2102 217.091V228H79.5341V217.091H81.2102ZM89.7898 228V217.091H91.4659V228H89.7898Z" fill="#1E1E1E"/>
<path d="M69.6974 319.455V334H67.9361V321.301H67.8509L64.2997 323.659V321.869L67.9361 319.455H69.6974ZM85.5 331.727L89.3068 323.091H90.8977L86.1818 334H84.8182L80.1875 323.091H81.75L85.5 331.727ZM81.2102 323.091V334H79.5341V323.091H81.2102ZM89.7898 334V323.091H91.4659V334H89.7898Z" fill="#1E1E1E"/>
<path d="M66.125 443.199C65.0549 443.199 64.1435 442.908 63.3906 442.325C62.6378 441.738 62.0625 440.888 61.6648 439.776C61.267 438.658 61.0682 437.309 61.0682 435.727C61.0682 434.155 61.267 432.813 61.6648 431.7C62.0672 430.583 62.6449 429.731 63.3977 429.143C64.1553 428.552 65.0644 428.256 66.125 428.256C67.1856 428.256 68.0923 428.552 68.8452 429.143C69.6027 429.731 70.1804 430.583 70.5781 431.7C70.9806 432.813 71.1818 434.155 71.1818 435.727C71.1818 437.309 70.983 438.658 70.5852 439.776C70.1875 440.888 69.6122 441.738 68.8594 442.325C68.1065 442.908 67.1951 443.199 66.125 443.199ZM66.125 441.636C67.1856 441.636 68.0095 441.125 68.5966 440.102C69.1837 439.08 69.4773 437.621 69.4773 435.727C69.4773 434.468 69.3423 433.395 69.0724 432.51C68.8073 431.625 68.4238 430.95 67.9219 430.486C67.4247 430.022 66.8258 429.79 66.125 429.79C65.0739 429.79 64.2524 430.308 63.6605 431.345C63.0687 432.377 62.7727 433.838 62.7727 435.727C62.7727 436.987 62.9053 438.057 63.1705 438.938C63.4356 439.818 63.8168 440.488 64.3139 440.947C64.8158 441.407 65.4195 441.636 66.125 441.636ZM85.5 440.727L89.3068 432.091H90.8977L86.1818 443H84.8182L80.1875 432.091H81.75L85.5 440.727ZM81.2102 432.091V443H79.5341V432.091H81.2102ZM89.7898 443V432.091H91.4659V443H89.7898Z" fill="#1E1E1E"/>
<defs>
<filter id="filter0_b_2926_2571" x="-4" y="3" width="58" height="438" filterUnits="userSpaceOnUse" color-interpolation-filters="sRGB">
<feFlood flood-opacity="0" result="BackgroundImageFix"/>
<feGaussianBlur in="BackgroundImageFix" stdDeviation="2"/>
<feComposite in2="SourceAlpha" operator="in" result="effect1_backgroundBlur_2926_2571"/>
<feBlend mode="normal" in="SourceGraphic" in2="effect1_backgroundBlur_2926_2571" result="shape"/>
</filter>
</defs>
</svg>
