<svg width="353" height="495" viewBox="0 0 353 495" fill="none" xmlns="http://www.w3.org/2000/svg">
<rect width="353" height="495" rx="25" fill="white"/>
<g filter="url(#filter0_b_2926_2572)">
<mask id="path-2-inside-1_2926_2572" fill="white">
<path d="M235 57C235 43.1929 246.193 32 260 32H285V462H260C246.193 462 235 450.807 235 437V57Z"/>
</mask>
<path d="M233 57C233 42.0883 245.088 30 260 30H285V34H260C247.297 34 237 44.2975 237 57H233ZM285 464H260C245.088 464 233 451.912 233 437H237C237 449.703 247.297 460 260 460H285V464ZM260 464C245.088 464 233 451.912 233 437V57C233 42.0883 245.088 30 260 30V34C247.297 34 237 44.2975 237 57V437C237 449.703 247.297 460 260 460V464ZM285 32V462V32Z" fill="#4D4D4D" mask="url(#path-2-inside-1_2926_2572)"/>
<mask id="path-4-inside-2_2926_2572" fill="white">
<path d="M235 139.117H285V246.997H235V139.117Z"/>
</mask>
<path d="M235 139.117V137.117H233V139.117H235ZM235 141.117H285V137.117H235V141.117ZM237 246.997V139.117H233V246.997H237Z" fill="#4D4D4D" mask="url(#path-4-inside-2_2926_2572)"/>
<mask id="path-6-inside-3_2926_2572" fill="white">
<path d="M235 245.484H285V353.364H235V245.484Z"/>
</mask>
<path d="M235 245.484V243.484H233V245.484H235ZM235 247.484H285V243.484H235V247.484ZM237 353.364V245.484H233V353.364H237Z" fill="#4D4D4D" mask="url(#path-6-inside-3_2926_2572)"/>
<mask id="path-8-inside-4_2926_2572" fill="white">
<path d="M235 351H285V423H235V351Z"/>
</mask>
<path d="M235 351V349H233V351H235ZM235 353H285V349H235V353ZM237 423V351H233V423H237Z" fill="#4D4D4D" mask="url(#path-8-inside-4_2926_2572)"/>
<mask id="path-10-inside-5_2926_2572" fill="white">
<path d="M235 404H260V432H235V404Z"/>
</mask>
<path d="M235 404V402C233.895 402 233 402.895 233 404H235ZM235 406H260V402H235V406ZM237 432V404H233V432H237Z" fill="#4D4D4D" mask="url(#path-10-inside-5_2926_2572)"/>
<mask id="path-12-inside-6_2926_2572" fill="white">
<path d="M235 297.906H260V351.086H235V297.906Z"/>
</mask>
<path d="M235 297.906V295.906H233V297.906H235ZM235 299.906H260V295.906H235V299.906ZM237 351.086V297.906H233V351.086H237Z" fill="#4D4D4D" mask="url(#path-12-inside-6_2926_2572)"/>
<mask id="path-14-inside-7_2926_2572" fill="white">
<path d="M235 191.539H260V244.719H235V191.539Z"/>
</mask>
<path d="M235 191.539V189.539H233V191.539H235ZM235 193.539H260V189.539H235V193.539ZM237 244.719V191.539H233V244.719H237Z" fill="#4D4D4D" mask="url(#path-14-inside-7_2926_2572)"/>
<mask id="path-16-inside-8_2926_2572" fill="white">
<path d="M235 85.1719H260V138.352H235V85.1719Z"/>
</mask>
<path d="M235 85.1719V83.1719H233V85.1719H235ZM235 87.1719H260V83.1719H235V87.1719ZM237 138.352V85.1719H233V138.352H237Z" fill="#4D4D4D" mask="url(#path-16-inside-8_2926_2572)"/>
</g>
<path d="M301.061 147.199C300.124 147.199 299.288 147.038 298.554 146.716C297.825 146.394 297.245 145.946 296.814 145.374C296.388 144.796 296.156 144.126 296.118 143.364H297.908C297.946 143.832 298.107 144.237 298.391 144.578C298.675 144.914 299.046 145.175 299.506 145.359C299.965 145.544 300.474 145.636 301.033 145.636C301.658 145.636 302.212 145.527 302.695 145.31C303.178 145.092 303.556 144.789 303.831 144.401C304.106 144.012 304.243 143.562 304.243 143.051C304.243 142.516 304.11 142.045 303.845 141.638C303.58 141.226 303.192 140.904 302.68 140.672C302.169 140.44 301.544 140.324 300.805 140.324H299.641V138.761H300.805C301.383 138.761 301.89 138.657 302.325 138.449C302.766 138.241 303.109 137.947 303.355 137.568C303.606 137.189 303.732 136.744 303.732 136.233C303.732 135.741 303.623 135.312 303.405 134.947C303.187 134.583 302.879 134.299 302.482 134.095C302.089 133.892 301.625 133.79 301.089 133.79C300.588 133.79 300.114 133.882 299.669 134.067C299.229 134.247 298.869 134.509 298.589 134.855C298.31 135.196 298.159 135.608 298.135 136.091H296.43C296.459 135.329 296.688 134.661 297.119 134.088C297.55 133.51 298.114 133.061 298.81 132.739C299.51 132.417 300.28 132.256 301.118 132.256C302.018 132.256 302.789 132.438 303.433 132.803C304.077 133.162 304.572 133.638 304.918 134.23C305.263 134.822 305.436 135.461 305.436 136.148C305.436 136.967 305.221 137.665 304.79 138.243C304.364 138.821 303.784 139.221 303.05 139.443V139.557C303.968 139.708 304.686 140.099 305.202 140.729C305.718 141.354 305.976 142.128 305.976 143.051C305.976 143.842 305.76 144.552 305.33 145.182C304.903 145.807 304.321 146.299 303.582 146.659C302.844 147.019 302.003 147.199 301.061 147.199ZM320.5 144.727L324.307 136.091H325.898L321.182 147H319.818L315.188 136.091H316.75L320.5 144.727ZM316.21 136.091V147H314.534V136.091H316.21ZM324.79 147V136.091H326.466V147H324.79Z" fill="#1E1E1E"/>
<path d="M295.708 37.017V35.5682L302.1 25.4545H303.151V27.6989H302.441L297.611 35.3409V35.4545H306.219V37.017H295.708ZM302.554 40V36.5767V35.902V25.4545H304.23V40H302.554ZM320.5 37.7273L324.307 29.0909H325.898L321.182 40H319.818L315.188 29.0909H316.75L320.5 37.7273ZM316.21 29.0909V40H314.534V29.0909H316.21ZM324.79 40V29.0909H326.466V40H324.79Z" fill="#1E1E1E"/>
<path d="M296.771 253V251.722L301.572 246.466C302.136 245.85 302.6 245.315 302.964 244.861C303.329 244.402 303.599 243.971 303.774 243.568C303.954 243.161 304.044 242.735 304.044 242.29C304.044 241.778 303.921 241.336 303.675 240.962C303.433 240.588 303.102 240.299 302.68 240.095C302.259 239.892 301.786 239.79 301.26 239.79C300.701 239.79 300.214 239.906 299.797 240.138C299.385 240.365 299.065 240.685 298.838 241.097C298.616 241.509 298.504 241.991 298.504 242.545H296.828C296.828 241.693 297.025 240.945 297.418 240.301C297.811 239.657 298.346 239.155 299.023 238.795C299.705 238.436 300.469 238.256 301.317 238.256C302.169 238.256 302.924 238.436 303.582 238.795C304.241 239.155 304.757 239.641 305.131 240.251C305.505 240.862 305.692 241.542 305.692 242.29C305.692 242.825 305.595 243.348 305.401 243.859C305.211 244.366 304.88 244.932 304.406 245.557C303.938 246.177 303.286 246.935 302.453 247.83L299.186 251.324V251.438H305.947V253H296.771ZM320.5 250.727L324.307 242.091H325.898L321.182 253H319.818L315.188 242.091H316.75L320.5 250.727ZM316.21 242.091V253H314.534V242.091H316.21ZM324.79 253V242.091H326.466V253H324.79Z" fill="#1E1E1E"/>
<path d="M304.697 344.455V359H302.936V346.301H302.851L299.3 348.659V346.869L302.936 344.455H304.697ZM320.5 356.727L324.307 348.091H325.898L321.182 359H319.818L315.188 348.091H316.75L320.5 356.727ZM316.21 348.091V359H314.534V348.091H316.21ZM324.79 359V348.091H326.466V359H324.79Z" fill="#1E1E1E"/>
<path d="M301.125 468.199C300.055 468.199 299.143 467.908 298.391 467.325C297.638 466.738 297.063 465.888 296.665 464.776C296.267 463.658 296.068 462.309 296.068 460.727C296.068 459.155 296.267 457.813 296.665 456.7C297.067 455.583 297.645 454.731 298.398 454.143C299.155 453.552 300.064 453.256 301.125 453.256C302.186 453.256 303.092 453.552 303.845 454.143C304.603 454.731 305.18 455.583 305.578 456.7C305.981 457.813 306.182 459.155 306.182 460.727C306.182 462.309 305.983 463.658 305.585 464.776C305.188 465.888 304.612 466.738 303.859 467.325C303.107 467.908 302.195 468.199 301.125 468.199ZM301.125 466.636C302.186 466.636 303.009 466.125 303.597 465.102C304.184 464.08 304.477 462.621 304.477 460.727C304.477 459.468 304.342 458.395 304.072 457.51C303.807 456.625 303.424 455.95 302.922 455.486C302.425 455.022 301.826 454.79 301.125 454.79C300.074 454.79 299.252 455.308 298.661 456.345C298.069 457.377 297.773 458.838 297.773 460.727C297.773 461.987 297.905 463.057 298.17 463.938C298.436 464.818 298.817 465.488 299.314 465.947C299.816 466.407 300.42 466.636 301.125 466.636ZM320.5 465.727L324.307 457.091H325.898L321.182 468H319.818L315.188 457.091H316.75L320.5 465.727ZM316.21 457.091V468H314.534V457.091H316.21ZM324.79 468V457.091H326.466V468H324.79Z" fill="#1E1E1E"/>
<defs>
<filter id="filter0_b_2926_2572" x="231" y="28" width="58" height="438" filterUnits="userSpaceOnUse" color-interpolation-filters="sRGB">
<feFlood flood-opacity="0" result="BackgroundImageFix"/>
<feGaussianBlur in="BackgroundImageFix" stdDeviation="2"/>
<feComposite in2="SourceAlpha" operator="in" result="effect1_backgroundBlur_2926_2572"/>
<feBlend mode="normal" in="SourceGraphic" in2="effect1_backgroundBlur_2926_2572" result="shape"/>
</filter>
</defs>
</svg>
