<svg width="20" height="20" viewBox="0 0 20 20" fill="none" xmlns="http://www.w3.org/2000/svg">
<path fill-rule="evenodd" clip-rule="evenodd" d="M9.99761 5.49761C7.51233 5.49761 5.49761 7.51233 5.49761 9.99761C5.49761 12.4829 7.51233 14.4976 9.99761 14.4976C12.4829 14.4976 14.4976 12.4829 14.4976 9.99761C14.495 7.5134 12.4818 5.50019 9.99761 5.49761ZM9.99761 12.9976C8.34075 12.9976 6.99761 11.6545 6.99761 9.99761C6.99761 8.34075 8.34075 6.99761 9.99761 6.99761C11.6545 6.99761 12.9976 8.34075 12.9976 9.99761C12.9976 11.6545 11.6545 12.9976 9.99761 12.9976ZM18.2476 10.2001C18.2514 10.0651 18.2514 9.93011 18.2476 9.79511L19.6464 8.04761C19.7951 7.86154 19.8466 7.61587 19.7851 7.38573C19.5558 6.5238 19.2128 5.69622 18.7651 4.9248C18.6463 4.7201 18.4377 4.58353 18.2026 4.55636L15.9789 4.30886C15.8864 4.21136 15.7926 4.11761 15.6976 4.02761L15.4351 1.79823C15.4077 1.56292 15.2708 1.35437 15.0657 1.23573C14.294 0.788872 13.4665 0.446204 12.6048 0.216672C12.3745 0.155446 12.1288 0.207296 11.9429 0.356359L10.2001 1.74761C10.0651 1.74761 9.93011 1.74761 9.79511 1.74761L8.04761 0.351672C7.86154 0.202935 7.61587 0.151436 7.38573 0.212922C6.52394 0.442635 5.69641 0.785625 4.9248 1.23292C4.7201 1.35178 4.58353 1.56029 4.55636 1.79542L4.30886 4.02292C4.21136 4.11605 4.11761 4.2098 4.02761 4.30417L1.79823 4.56011C1.56292 4.58749 1.35437 4.72443 1.23573 4.92948C0.788872 5.7012 0.446204 6.52871 0.216672 7.39042C0.155446 7.62071 0.207296 7.86639 0.356359 8.0523L1.74761 9.79511C1.74761 9.93011 1.74761 10.0651 1.74761 10.2001L0.351672 11.9476C0.202935 12.1337 0.151436 12.3793 0.212922 12.6095C0.442224 13.4714 0.785236 14.299 1.23292 15.0704C1.35178 15.2751 1.56029 15.4117 1.79542 15.4389L4.01917 15.6864C4.1123 15.7839 4.20605 15.8776 4.30042 15.9676L4.56011 18.197C4.58749 18.4323 4.72443 18.6408 4.92948 18.7595C5.7012 19.2063 6.52871 19.549 7.39042 19.7785C7.62071 19.8398 7.86639 19.7879 8.0523 19.6389L9.79511 18.2476C9.93011 18.2514 10.0651 18.2514 10.2001 18.2476L11.9476 19.6464C12.1337 19.7951 12.3793 19.8466 12.6095 19.7851C13.4714 19.5558 14.299 19.2128 15.0704 18.7651C15.2751 18.6463 15.4117 18.4377 15.4389 18.2026L15.6864 15.9789C15.7839 15.8864 15.8776 15.7926 15.9676 15.6976L18.197 15.4351C18.4323 15.4077 18.6408 15.2708 18.7595 15.0657C19.2063 14.294 19.549 13.4665 19.7785 12.6048C19.8398 12.3745 19.7879 12.1288 19.6389 11.9429L18.2476 10.2001ZM16.7382 9.59073C16.7542 9.86175 16.7542 10.1335 16.7382 10.4045C16.7271 10.59 16.7852 10.7731 16.9014 10.9182L18.2317 12.5804C18.079 13.0655 17.8836 13.5361 17.6476 13.9867L15.5289 14.2267C15.3443 14.2472 15.174 14.3353 15.0507 14.4742C14.8703 14.6771 14.6781 14.8693 14.4751 15.0498C14.3363 15.173 14.2481 15.3434 14.2276 15.5279L13.9923 17.6448C13.5418 17.8809 13.0712 18.0763 12.586 18.2289L10.9229 16.8985C10.7898 16.7922 10.6245 16.7344 10.4542 16.7345H10.4092C10.1382 16.7504 9.86644 16.7504 9.59542 16.7345C9.40987 16.7233 9.22679 16.7814 9.08167 16.8976L7.4148 18.2289C6.92967 18.0762 6.45907 17.8808 6.00855 17.6448L5.76855 15.5289C5.74806 15.3443 5.65988 15.174 5.52105 15.0507C5.31809 14.8703 5.12588 14.6781 4.94542 14.4751C4.82217 14.3363 4.65181 14.2481 4.4673 14.2276L2.35042 13.9914C2.11435 13.5409 1.91889 13.0703 1.76636 12.5851L3.09667 10.922C3.21283 10.7769 3.27097 10.5938 3.2598 10.4082C3.24386 10.1372 3.24386 9.8655 3.2598 9.59448C3.27097 9.40894 3.21283 9.22585 3.09667 9.08073L1.76636 7.4148C1.91901 6.92967 2.11446 6.45907 2.35042 6.00855L4.46636 5.76855C4.65087 5.74806 4.82123 5.65988 4.94448 5.52105C5.12494 5.31809 5.31715 5.12588 5.52011 4.94542C5.65949 4.82209 5.74804 4.65134 5.76855 4.46636L6.00386 2.35042C6.45433 2.11435 6.92494 1.91889 7.41011 1.76636L9.07323 3.09667C9.21835 3.21283 9.40144 3.27097 9.58698 3.2598C9.858 3.24386 10.1297 3.24386 10.4007 3.2598C10.5863 3.27097 10.7694 3.21283 10.9145 3.09667L12.5804 1.76636C13.0655 1.91901 13.5361 2.11446 13.9867 2.35042L14.2267 4.46636C14.2472 4.65087 14.3353 4.82123 14.4742 4.94448C14.6771 5.12494 14.8693 5.31715 15.0498 5.52011C15.173 5.65894 15.3434 5.74713 15.5279 5.76761L17.6448 6.00292C17.8809 6.45339 18.0763 6.924 18.2289 7.40917L16.8985 9.0723C16.7813 9.21864 16.7231 9.40361 16.7354 9.59073H16.7382Z" fill="#121417"/>
</svg>
