<svg width="18" height="20" viewBox="0 0 18 20" fill="none" xmlns="http://www.w3.org/2000/svg">
<path fill-rule="evenodd" clip-rule="evenodd" d="M17.0306 5.71938L11.7806 0.469375C11.6399 0.328758 11.449 0.249844 11.25 0.25H2.25C1.42157 0.25 0.75 0.921573 0.75 1.75V18.25C0.75 19.0784 1.42157 19.75 2.25 19.75H15.75C16.5784 19.75 17.25 19.0784 17.25 18.25V6.25C17.2502 6.05103 17.1712 5.86015 17.0306 5.71938ZM12 2.81031L14.6897 5.5H12V2.81031ZM15.75 18.25H2.25V1.75H10.5V6.25C10.5 6.66421 10.8358 7 11.25 7H15.75V18.25ZM12.75 10.75C12.75 11.1642 12.4142 11.5 12 11.5H6C5.58579 11.5 5.25 11.1642 5.25 10.75C5.25 10.3358 5.58579 10 6 10H12C12.4142 10 12.75 10.3358 12.75 10.75ZM12.75 13.75C12.75 14.1642 12.4142 14.5 12 14.5H6C5.58579 14.5 5.25 14.1642 5.25 13.75C5.25 13.3358 5.58579 13 6 13H12C12.4142 13 12.75 13.3358 12.75 13.75Z" fill="#121417"/>
</svg>
