<svg width="20" height="18" viewBox="0 0 20 18" fill="none" xmlns="http://www.w3.org/2000/svg">
<path fill-rule="evenodd" clip-rule="evenodd" d="M19.4613 1.65844C19.2792 1.51659 19.042 1.46645 18.8181 1.5225L13.0872 2.955L7.33562 0.0787499C7.17537 -0.0011816 6.99181 -0.0211341 6.81812 0.0225L0.818125 1.5225C0.484278 1.60595 0.250052 1.90588 0.25 2.25V15.75C0.250035 15.9809 0.356449 16.199 0.538475 16.3411C0.720501 16.4832 0.957841 16.5335 1.18187 16.4775L6.91281 15.045L12.6644 17.9212C12.7688 17.9727 12.8836 17.9997 13 18C13.0613 18 13.1224 17.9924 13.1819 17.9775L19.1819 16.4775C19.5157 16.3941 19.7499 16.0941 19.75 15.75V2.25C19.7501 2.01885 19.6435 1.80059 19.4613 1.65844ZM7.75 1.96313L12.25 4.21313V16.0369L7.75 13.7869V1.96313ZM1.75 2.83594L6.25 1.71094V13.6641L1.75 14.7891V2.83594ZM18.25 15.1641L13.75 16.2891V4.33594L18.25 3.21094V15.1641Z" fill="#121417"/>
</svg>
